PathFileType	4	(X/Y/Z)	/Users/itak/Documents/Research/Walk-IL/dataset/trc/00059_00006.trc
DataRate	CameraRate	NumFrames	NumMarkers	Units	OrigDataRate	OrigDataStartFrame	OrigNumFrames
100.000000	100.000000	4	53	mm	100.000000	656	750
Frame#	Time	RPSI			LPSI			L3			STRN			T10			C7			CLAV			RBAK			LBAK			LSHO			LUPA			LAEL			LAOL			LWTS			LWPS			LFRA			LIFD			LHPS			LHTS			RSHO			RUPA			RAEL			RAOL			RWTS			RWPS			RFRA			RIFD			RHTS			RHPS			RBHD			LFHD			RFHD			LBHD			LHIP			RHIP			RASI			LASI			LKNE			LTHI			LANK			LTIP			LTOE			LMT1			LMT5			LHEE			RKNE			RTHI			RANK			RTIP			RTOE			RMT1			RMT5			RHEE			
		X1	Y1	Z1	X2	Y2	Z2	X3	Y3	Z3	X4	Y4	Z4	X5	Y5	Z5	X6	Y6	Z6	X7	Y7	Z7	X8	Y8	Z8	X9	Y9	Z9	X10	Y10	Z10	X11	Y11	Z11	X12	Y12	Z12	X13	Y13	Z13	X14	Y14	Z14	X15	Y15	Z15	X16	Y16	Z16	X17	Y17	Z17	X18	Y18	Z18	X19	Y19	Z19	X20	Y20	Z20	X21	Y21	Z21	X22	Y22	Z22	X23	Y23	Z23	X24	Y24	Z24	X25	Y25	Z25	X26	Y26	Z26	X27	Y27	Z27	X28	Y28	Z28	X29	Y29	Z29	X30	Y30	Z30	X31	Y31	Z31	X32	Y32	Z32	X33	Y33	Z33	X34	Y34	Z34	X35	Y35	Z35	X36	Y36	Z36	X37	Y37	Z37	X38	Y38	Z38	X39	Y39	Z39	X40	Y40	Z40	X41	Y41	Z41	X42	Y42	Z42	X43	Y43	Z43	X44	Y44	Z44	X45	Y45	Z45	X46	Y46	Z46	X47	Y47	Z47	X48	Y48	Z48	X49	Y49	Z49	X50	Y50	Z50	X51	Y51	Z51	X52	Y52	Z52	X53	Y53	Z53	

657	6.56	-239.6055908203125	1032.299072265625	1195.883544921875	-229.5619201660156	1018.801330566406	1022.058349609375	-233.5907897949219	1083.653686523438	1103.784545898438	6.019214153289795	1292.377319335938	1147.374633789062	-256.3909912109375	1217.80517578125	1093.853637695312	-205.6957244873047	1486.446899414062	1100.495727539062	-276.8658142089844	1346.245361328125	1162.266479492188	-27.999755859375	1405.56494140625	1138.548950195312	-208.1899566650391	1448.229614257812	998.2172241210938	-93.77547454833984	1455.269409179688	947.247802734375	-93.89131164550781	1332.152954101562	865.8252563476562	-62.92084503173828	1121.219482421875	836.4674682617188	-137.0007629394531	1098.944213867188	909.9362182617188	32.88676452636719	885.1644897460938	903.4224853515625	-16.23588943481445	872.4130249023438	836.1658325195312	-35.3797607421875	1013.553833007812	827.6375122070312	54.46305465698242	699.485107421875	920.068115234375	19.47992324829102	792.7486572265625	844.2459106445312	59.87937164306641	803.8805541992188	901.7930297851562	-178.8083038330078	1456.60205078125	1283.117553710938	-205.1967926025391	1393.51318359375	1343.719970703125	-260.1943664550781	1145.3779296875	1404.224853515625	-223.3364868164062	1108.131591796875	1319.7109375	-114.3548431396484	891.0253295898438	1426.426635742188	-197.0102233886719	880.9762573242188	1454.52880859375	-252.0998992919922	1064.37744140625	1425.917846679688	-123.9745864868164	697.469482421875	1417.217529296875	-103.6817474365234	782.9955444335938	1434.8125	-173.6254730224609	790.4026489257812	1466.503173828125	-168.2099151611328	1673.119506835938	1083.617309570312	23.72722244262695	1697.881469726562	1179.292846679688	4.727329254150391	1705.687377929688	1054.2109375	-138.7535095214844	1657.095336914062	1217.6044921875	-111.6785583496094	963.2965087890625	942.7406616210938	-185.2691955566406	961.6900634765625	1281.9267578125	-60.0780143737793	982.2959594726562	1281.753540039062	-11.60039710998535	978.0653686523438	1016.833312988281	49.8699951171875	506.9255065917969	1017.428649902344	-2.217539548873901	646.9549560546875	972.0855712890625	-238.3621368408203	119.2776107788086	950.7662353515625	-107.9079895019531	302.073974609375	968.52197265625	-51.99274444580078	62.20013809204102	995.7775268554688	-107.8296890258789	69.18434143066406	1038.70263671875	-139.6706695556641	79.45717620849609	933.5956420898438	-301.5647277832031	136.4925689697266	1015.611083984375	-53.54100799560547	525.3684692382812	1271.8212890625	-82.74249267578125	794.9132690429688	1298.753540039062	-148.6578979492188	43.66358947753906	1247.406616210938	-70.71086120605469	397.21923828125	1273.503295898438	71.97309112548828	42.72814178466797	1250.09716796875	19.97369194030762	49.77791976928711	1200.581420898438	-29.79999542236328	48.10570907592773	1286.151245117188	-183.3559417724609	48.44094085693359	1183.486450195312	
658	6.57	-236.3233184814453	1032.327514648438	1198.939575195312	-227.7010345458984	1019.259826660156	1024.989868164062	-231.0616912841797	1083.81689453125	1106.91015625	9.166101455688477	1292.483642578125	1148.5869140625	-253.6906280517578	1218.081420898438	1097.48095703125	-202.8825988769531	1486.67236328125	1103.640258789062	-273.5556030273438	1346.521728515625	1166.081909179688	-24.89408111572266	1405.682739257812	1140.0341796875	-206.3011016845703	1448.460693359375	1001.393615722656	-92.38256072998047	1455.39697265625	949.3727416992188	-93.32855224609375	1332.306762695312	867.9277954101562	-62.62740325927734	1121.344970703125	838.2413330078125	-136.1360626220703	1099.1298828125	912.2813720703125	33.27448654174805	885.0682373046875	904.4407348632812	-16.21083641052246	872.4893188476562	837.42919921875	-35.24251556396484	1013.650573730469	829.1592407226562	54.4985466003418	699.2782592773438	920.7589111328125	19.37632369995117	792.7379760742188	845.239501953125	60.19322204589844	803.7676391601562	902.5991821289062	-174.2508697509766	1456.802001953125	1286.049926757812	-199.9888458251953	1393.65380859375	1346.930786132812	-254.1452941894531	1145.18798828125	1407.609619140625	-218.1957550048828	1108.197631835938	1322.5966796875	-107.7459335327148	891.048095703125	1427.635986328125	-189.9764709472656	880.869384765625	1456.65966796875	-245.683837890625	1064.17236328125	1429.005493164062	-117.1426696777344	697.423095703125	1417.957275390625	-96.75520324707031	782.9892578125	1435.636108398438	-166.4012908935547	790.2359008789062	1468.149291992188	-166.4388885498047	1672.919067382812	1087.468994140625	27.4142017364502	1698.451416015625	1179.02685546875	5.703936100006104	1706.345336914062	1054.416625976562	-133.9932403564453	1656.84521484375	1220.795532226562	-110.2792053222656	963.9846801757812	944.755126953125	-181.2656555175781	961.5358276367188	1284.446166992188	-56.21448135375977	982.0623779296875	1283.261596679688	-9.655104637145996	978.4563598632812	1017.984619140625	50.87191390991211	507.5663146972656	1016.478271484375	-1.524573922157288	647.4597778320312	971.8970336914062	-227.0655975341797	112.5054016113281	955.7601928710938	-102.0397033691406	298.9263000488281	970.6860961914062	-37.95003128051758	62.25278472900391	997.2428588867188	-93.15861511230469	67.08222198486328	1041.276245117188	-127.2949981689453	76.23046875	936.691650390625	-289.7536315917969	127.5076522827148	1021.660522460938	-51.5736083984375	524.9251098632812	1272.377685546875	-79.26483154296875	794.5682373046875	1300.0595703125	-148.6367340087891	43.66947937011719	1247.38232421875	-69.36405944824219	396.9611511230469	1273.885375976562	71.96705627441406	42.66749572753906	1250.079345703125	19.9980297088623	49.76633453369141	1200.562622070312	-29.74227142333984	48.05506134033203	1286.144409179688	-183.3529663085938	48.49521636962891	1183.47314453125	
659	6.58	-233.1137084960938	1032.336181640625	1201.859619140625	-225.84765625	1019.699096679688	1027.813232421875	-228.5630340576172	1083.982421875	1109.913330078125	12.24234676361084	1292.569458007812	1149.713134765625	-251.0164337158203	1218.332275390625	1100.976806640625	-200.1056060791016	1486.8916015625	1106.672607421875	-270.2867736816406	1346.789306640625	1169.764038085938	-21.84427261352539	1405.781005859375	1141.433471679688	-204.4273986816406	1448.690307617188	1004.457458496094	-91.0040283203125	1455.509887695312	951.4119262695312	-92.7745361328125	1332.451049804688	869.943359375	-62.34264373779297	1121.458129882812	839.9310913085938	-135.3010406494141	1099.295288085938	914.5184936523438	33.61699676513672	884.9642333984375	905.42626953125	-16.20283508300781	872.5641479492188	838.6317138671875	-35.11067962646484	1013.732116699219	830.6131591796875	54.44208526611328	699.0616455078125	921.3984985351562	19.26959609985352	792.7288208007812	846.1851806640625	60.4136848449707	803.6119384765625	903.3942260742188	-169.7689514160156	1456.978271484375	1288.852661132812	-194.8729705810547	1393.751342773438	1349.997436523438	-248.2765045166016	1144.962768554688	1410.759765625	-213.1506805419922	1108.2333984375	1325.2783203125	-101.3495941162109	891.005615234375	1428.626220703125	-183.1807708740234	880.6824340820312	1458.52880859375	-239.4318695068359	1063.93505859375	1431.862060546875	-110.5825271606445	697.319580078125	1418.49853515625	-90.11353302001953	782.9010620117188	1436.240234375	-159.4633026123047	790.0231323242188	1469.580200195312	-164.6216278076172	1672.713500976562	1091.187622070312	30.97653961181641	1698.977416992188	1178.763671875	6.690243244171143	1706.968994140625	1054.663940429688	-129.3318023681641	1656.5791015625	1223.7978515625	-108.91162109375	964.6312866210938	946.6904907226562	-177.3480072021484	961.3751220703125	1286.8134765625	-52.38019561767578	981.831298828125	1284.66064453125	-7.732597827911377	978.834228515625	1019.060668945312	51.5698356628418	508.0967102050781	1015.642456054688	-1.046693801879883	647.8853759765625	971.7257690429688	-215.870849609375	106.0847320556641	960.3551635742188	-96.29717254638672	295.876220703125	972.7343139648438	-24.43408012390137	62.43252182006836	998.5122680664062	-78.96389770507812	65.23321533203125	1043.546875	-115.2138290405273	73.26290130615234	939.4751586914062	-277.989990234375	118.9386596679688	1027.2568359375	-49.71800994873047	524.4905395507812	1272.858764648438	-75.89599609375	794.2144165039062	1301.276000976562	-148.6170959472656	43.67843627929688	1247.353881835938	-68.09908294677734	396.7089538574219	1274.215576171875	71.96018981933594	42.60898208618164	1250.065795898438	20.00892448425293	49.74753952026367	1200.543090820312	-29.69435119628906	48.01564407348633	1286.125610351562	-183.3518676757812	48.5412712097168	1183.4521484375	
660	6.59	-229.9686584472656	1032.335327148438	1204.652587890625	-223.9847259521484	1020.124389648438	1030.539672851562	-226.0958557128906	1084.158569335938	1112.795654296875	15.25249195098877	1292.638427734375	1150.751708984375	-248.3839416503906	1218.5595703125	1104.3251953125	-197.3646545410156	1487.109497070312	1109.589965820312	-267.0618896484375	1347.050415039062	1173.311157226562	-18.84327507019043	1405.864501953125	1142.745239257812	-202.5675354003906	1448.92236328125	1007.405700683594	-89.62882232666016	1455.615234375	953.363525390625	-92.21881866455078	1332.59130859375	871.8683471679688	-62.05670547485352	1121.565673828125	841.5352172851562	-134.4954986572266	1099.447387695312	916.64111328125	33.9113655090332	884.8550415039062	906.3788452148438	-16.22095680236816	872.6395874023438	839.7747192382812	-34.98377227783203	1013.803405761719	831.998046875	54.31108093261719	698.8505859375	921.9921264648438	19.14460754394531	792.7213134765625	847.0863037109375	60.52141952514648	803.4163818359375	904.1693725585938	-165.3658447265625	1457.129638671875	1291.521850585938	-189.8634796142578	1393.806518554688	1352.915405273438	-242.5939636230469	1144.7109375	1413.66552734375	-208.2056427001953	1108.238891601562	1327.754028320312	-95.16967010498047	890.9067993164062	1429.417114257812	-176.6341705322266	880.4248657226562	1460.142211914062	-233.3555297851562	1063.662963867188	1434.482788085938	-104.2915267944336	697.1674194335938	1418.864624023438	-83.75173187255859	782.743408203125	1436.637573242188	-152.8054351806641	789.7647705078125	1470.795776367188	-162.7586669921875	1672.518188476562	1094.7587890625	34.42036056518555	1699.459594726562	1178.521362304688	7.706794261932373	1707.566772460938	1054.957763671875	-124.790885925293	1656.303588867188	1226.611083984375	-107.571647644043	965.2360229492188	948.54833984375	-173.5174255371094	961.2183837890625	1289.034301757812	-48.57025146484375	981.6073608398438	1285.944091796875	-5.839230060577393	979.1979370117188	1020.058288574219	52.01346588134766	508.5303649902344	1014.937561035156	-0.7511034607887268	648.2413330078125	971.5863037109375	-204.8604888916016	100.0616760253906	964.5812377929688	-90.68538665771484	292.9449462890625	974.6939086914062	-11.49213027954102	62.76690292358398	999.6390380859375	-65.31520080566406	63.6600456237793	1045.5712890625	-103.4987106323242	70.59130096435547	942.0086059570312	-266.3578491210938	110.8492660522461	1032.427612304688	-47.96225738525391	524.0745849609375	1273.285034179688	-72.64481353759766	793.8619995117188	1302.410278320312	-148.5977478027344	43.69041442871094	1247.324096679688	-66.91828918457031	396.4629516601562	1274.514770507812	71.94955444335938	42.5418701171875	1250.0576171875	20.00849342346191	49.72206497192383	1200.527709960938	-29.65372276306152	47.98637008666992	1286.098022460938	-183.3503570556641	48.58305358886719	1183.42822265625	
